<?xml version="1.0" standalone="no"?>
<!DOCTYPE svg PUBLIC "-//W3C//DTD SVG 20010904//EN"
 "http://www.w3.org/TR/2001/REC-SVG-20010904/DTD/svg10.dtd">
<svg version="1.0" xmlns="http://www.w3.org/2000/svg"
 width="1600.000000pt" height="1101.000000pt" viewBox="0 0 1600.000000 1101.000000"
 preserveAspectRatio="xMidYMid meet">

<g transform="translate(0.000000,1101.000000) scale(0.100000,-0.100000)"
fill="#000000" stroke="none">
<path d="M6457 10276 c-58 -16 -114 -59 -145 -112 -21 -37 -22 -47 -20 -241
l3 -201 31 -39 c17 -21 53 -49 80 -63 46 -24 57 -25 254 -28 127 -2 228 1 265
8 121 24 209 97 240 203 20 66 19 209 -1 276 -27 93 -119 171 -233 197 -75 18
-408 18 -474 0z"/>
<path d="M8545 10276 c-105 -26 -193 -95 -226 -178 -24 -59 -26 -238 -3 -305
33 -96 111 -163 223 -189 36 -9 124 -14 252 -14 230 0 279 10 338 69 59 59 71
109 71 287 0 147 -1 153 -28 205 -34 66 -94 114 -162 128 -69 15 -402 13 -465
-3z"/>
<path d="M6575 9059 c-348 -37 -632 -283 -727 -629 l-23 -85 0 -750 c0 -796 0
-789 47 -920 114 -315 406 -534 735 -552 l112 -6 3 -236 c3 -224 4 -238 26
-284 32 -63 88 -97 163 -97 71 0 88 10 330 188 111 81 232 170 270 197 37 28
123 91 191 140 l123 90 585 5 c638 6 603 3 754 67 222 93 393 285 473 534 l28
84 0 785 0 785 -27 81 c-51 157 -112 260 -217 364 -79 79 -159 133 -263 178
-159 68 -100 65 -1363 68 -627 1 -1176 -2 -1220 -7z m2356 -353 c181 -39 328
-177 374 -351 23 -88 23 -1432 0 -1520 -47 -179 -206 -325 -387 -355 -37 -6
-267 -10 -560 -10 -441 0 -502 -2 -540 -17 -86 -33 -594 -383 -718 -494 l-35
-31 -5 219 c-5 239 -5 236 -66 274 -56 34 -131 49 -254 49 -163 1 -232 13
-318 56 -82 42 -177 135 -216 212 -54 108 -56 134 -56 859 0 615 2 674 19 745
43 181 188 323 372 362 95 21 2293 22 2390 2z"/>
<path d="M5119 7418 c-2 -371 24 -606 100 -898 116 -446 352 -857 662 -1156
132 -125 213 -191 358 -288 107 -72 402 -226 501 -261 299 -107 519 -167 745
-202 l50 -8 7 -130 c17 -314 67 -545 167 -773 223 -506 639 -810 1251 -912
147 -25 270 -25 440 0 208 30 340 70 515 155 379 182 659 500 832 940 17 44
35 92 38 108 4 15 11 29 15 32 4 2 45 0 91 -6 173 -22 386 32 534 136 86 61
197 182 244 267 23 40 53 111 68 158 26 78 28 97 27 240 0 141 -3 162 -27 235
-96 288 -330 495 -620 550 -418 79 -826 -183 -927 -595 -30 -122 -34 -203 -15
-314 31 -181 100 -319 224 -445 l74 -75 -23 -80 c-120 -429 -411 -747 -805
-882 -171 -59 -236 -69 -455 -69 -178 0 -217 3 -295 22 -245 61 -430 160 -596
320 -116 112 -176 193 -238 318 -84 170 -126 347 -138 575 -3 69 -3 146 1 172
l7 45 92 12 c51 7 130 21 177 31 47 11 101 22 120 26 54 10 378 118 445 149
336 151 584 314 799 523 215 209 363 414 496 687 72 145 79 164 135 330 31 93
42 132 79 283 18 70 53 285 61 367 20 224 25 301 25 388 l0 97 -168 0 -169 0
-6 -157 c-11 -250 -47 -510 -93 -673 -121 -421 -296 -732 -558 -994 -289 -289
-671 -495 -1098 -592 -360 -82 -765 -79 -1098 7 -208 53 -284 81 -455 164
-232 113 -393 225 -574 400 -316 305 -522 706 -621 1205 -27 136 -60 440 -60
558 l0 92 -170 0 -170 0 -1 -82z m5973 -2147 c224 -64 363 -263 345 -494 -15
-202 -154 -366 -353 -417 -94 -24 -124 -25 -217 -4 -377 86 -499 559 -210 814
121 107 283 144 435 101z"/>
</g>
</svg>
